inDegrees=no
num_controls=7
num_derivatives=13
num_iterations=124
num_multipliers=7
num_parameters=0
num_slacks=7
num_states=26
objective=0.497132
objective_accelerations=0.042452
objective_balance=0.003555
objective_effort=0.039779
objective_height=0.405520
objective_ligament=0.005826
solver_duration=1416.007579
status=Solve_Succeeded
success=true
DataType=double
version=3
OpenSimVersion=4.5
endheader
time	/jointset/ground_pelvis/pelvis_tilt/value	/jointset/ground_pelvis/pelvis_tx/value	/jointset/ground_pelvis/pelvis_ty/value	/jointset/hip_r/hip_flexion_r/value	/jointset/hip_r/hip_adduction_r/value	/jointset/hip_r/hip_rotation_r/value	/jointset/back/lumbar_extension/value	/jointset/patellofemoral_r/patellar_flexion_r/value	/jointset/knee_r/knee_flexion_r/value	/jointset/knee_r/knee_adduction_r/value	/jointset/knee_r/knee_rotation_r/value	/jointset/ankle_r/ankle_angle_r/value	/jointset/subtalar_r/subtalar_angle_r/value	/jointset/ground_pelvis/pelvis_tilt/speed	/jointset/ground_pelvis/pelvis_tx/speed	/jointset/ground_pelvis/pelvis_ty/speed	/jointset/hip_r/hip_flexion_r/speed	/jointset/hip_r/hip_adduction_r/speed	/jointset/hip_r/hip_rotation_r/speed	/jointset/back/lumbar_extension/speed	/jointset/patellofemoral_r/patellar_flexion_r/speed	/jointset/knee_r/knee_flexion_r/speed	/jointset/knee_r/knee_adduction_r/speed	/jointset/knee_r/knee_rotation_r/speed	/jointset/ankle_r/ankle_angle_r/speed	/jointset/subtalar_r/subtalar_angle_r/speed	/forceset/tau_hip_flexion_r	/forceset/tau_hip_adduction_r	/forceset/tau_hip_rotation_r	/forceset/tau_knee_flexion_r	/forceset/tau_ankle_angle_r	/forceset/tau_subtalar_angle_r	/forceset/tau_lumbar_extension	lambda_cid13_p0	lambda_cid14_p0	lambda_cid14_p1	lambda_cid14_p2	lambda_cid14_p3	lambda_cid14_p4	lambda_cid14_p5	/jointset/ground_pelvis/pelvis_tilt/accel	/jointset/ground_pelvis/pelvis_tx/accel	/jointset/ground_pelvis/pelvis_ty/accel	/jointset/hip_r/hip_flexion_r/accel	/jointset/hip_r/hip_adduction_r/accel	/jointset/hip_r/hip_rotation_r/accel	/jointset/back/lumbar_extension/accel	/jointset/patellofemoral_r/patellar_flexion_r/accel	/jointset/knee_r/knee_flexion_r/accel	/jointset/knee_r/knee_adduction_r/accel	/jointset/knee_r/knee_rotation_r/accel	/jointset/ankle_r/ankle_angle_r/accel	/jointset/subtalar_r/subtalar_angle_r/accel	gamma_cid13_p0	gamma_cid14_p0	gamma_cid14_p1	gamma_cid14_p2	gamma_cid14_p3	gamma_cid14_p4	gamma_cid14_p5
0.5	-0.1383667478561893	0.0340682673228652	0.8412636589017178	0.8104999130027116	-0.242719053837693	-0.0985018660214417	-0.3247942364476022	0.7718644360635583	0.7718644360632989	0.06534614050811016	0.1745277776021047	0.2689850616460646	0.04059895127473001	-0.3644102404988938	-0.127606474662668	-0.4179372963639952	1.73075377422365	-0.02599515811953035	0.3827337592008332	-0.6015197119588431	1.891833310720627	1.891833310720618	-0.1837985819037173	-2.932212123142516e-06	0.6140114402221625	0.1264560359789152	-0.1018625207111099	-0.02040964984166039	0.01301267082463085	-0.3525487243607711	0.07258018435377478	-0.01040022213787302	0.1527769905470376	-27.11028724199044	-18.5725334875038	-3.94126556886364	-3.283574105786451	2.456361036989618	-664.4467421378363	59.8197026792472	0.1912329241695202	0.3686321123027916	-0.4323736812532887	-1.015958770887637	0.06905346860019235	-0.3455513137548246	1.443969033423649	-1.29433735088041	-1.294337350880371	0.5316358621646422	-0.02334901738155541	-0.5770268255063927	0.01691767369063265	-1.378647381977962e-07	-9.636927842918472e-08	1.320393280525235e-06	-7.363180015064962e-07	-8.488091262385647e-08	-1.744565221437358e-07	9.652839047442838e-07
0.51	-0.1420006542447602	0.03281082422366921	0.8370636397603288	0.8277538489089026	-0.2429761753078072	-0.09469253776749087	-0.3307364921376187	0.7907151188558929	0.7907151188557099	0.06353580731029197	0.1745278280746962	0.2750951817183025	0.04186323752733784	-0.3623213224938587	-0.1238656174546011	-0.4219683893342118	1.719786228089652	-0.02542709847970537	0.3791066148371504	-0.5868451456090056	1.878025112396279	1.878025112396293	-0.1782640643452113	1.651201340120421e-05	0.6079253227928177	0.1263812462291903	-0.1079690527076552	-0.01848312499774253	0.01348143076190117	-0.3561292369619551	0.06899562408590727	-0.009610189885860135	0.1583273162201228	-25.95295757487866	-19.91384477526186	-3.957790059099938	-3.138408896555025	2.940530376127615	-668.6628684665133	59.71507082576669	0.2251693133607416	0.3792749160790611	-0.3737884445922892	-1.174240514672783	0.05097725771083555	-0.3752712304089171	1.492142501088064	-1.465754704712325	-1.465754704708939	0.5651143961321565	0.01499944710917735	-0.6375212564027511	-0.02255578329225295	-1.286296596119095e-07	-8.817700034107708e-08	1.234637713548407e-06	-6.884112226977557e-07	-8.289688039344107e-08	-1.545138191934715e-07	9.032902423410665e-07
0.52	-0.145612181838343	0.03159128217475796	0.8328262474213002	0.8448906917577501	-0.2432275571723154	-0.09092027600372408	-0.3365294137510721	0.8094193809386854	0.8094193809385771	0.06178097022674866	0.1745281546504564	0.2811418172052961	0.0431262001856508	-0.3599344815012135	-0.120026264605719	-0.4254119358918833	1.707335162754978	-0.02484723699839266	0.3753204611641116	-0.5716528966461973	1.862549168811916	1.862549168811952	-0.1726993590491623	5.228842251573784e-05	0.6013145231733036	0.1261913171199374	-0.1140755847042004	-0.01655660015382618	0.01395019069915113	-0.3597097495631384	0.06541106381803942	-0.008820157633848988	0.1638776418932082	-24.78646800993964	-21.26058924302425	-3.972283958006169	-2.996973755516466	3.419041908231446	-672.9697518216791	59.66660643311432	0.250817521691526	0.3883312404658155	-0.3148643987442479	-1.312662611022841	0.07141383689774244	-0.3773531756260042	1.547505556017788	-1.627886402883388	-1.627886402883445	0.5376734096732545	-0.02008258066352261	-0.6819632635402942	-0.006110198214957825	-1.190823031334826e-07	-7.955795443257362e-08	1.150600849642372e-06	-6.36042343086983e-07	-8.099884609331727e-08	-1.360890722707678e-07	8.413085995815422e-07
0.53	-0.1491984255379432	0.03041057601030368	0.828557386269505	0.8618958169780321	-0.2434729994298631	-0.08718655567328172	-0.3421679190206287	0.8279607356658486	0.8279607356660212	0.06008175344213029	0.1745287558105505	0.2871198318862968	0.04438680408894313	-0.3572671065122583	-0.1161029655086064	-0.428258204868497	1.693452074132391	-0.02423789782149795	0.3714033274315303	-0.5559759971187418	1.845455896388466	1.845455896388489	-0.1671433483438133	6.555179351748482e-05	0.5942078927900362	0.1259120412203155	-0.1200339555036637	-0.01470336491852555	0.01440111022122372	-0.3634338216103947	0.06202031845523398	-0.008170050988585066	0.1692940306574969	-23.61332415840717	-22.55601507738091	-4.048626701924732	-2.83418170877433	3.897057760667398	-677.3270657314714	59.5360410691496	0.2817621229386743	0.3961136604271662	-0.254219989607641	-1.461812605244528	0.05617965873544122	-0.4020935957430977	1.588606173071158	-1.789906883408065	-1.789906883409976	0.5647987865949882	0.01157731253295782	-0.7371164673210058	-0.0413472239338343	-1.104275362821397e-07	-7.165094405014773e-08	1.076201663066481e-06	-5.872281605764731e-07	-7.937037850238412e-08	-1.198349764028617e-07	7.858867368844851e-07
0.54	-0.1527565825605658	0.02926945972003915	0.8242631200594462	0.8787549751886148	-0.2437122511555117	-0.08349264670489887	-0.3476474904905185	0.8463231858245108	0.8463231858249642	0.05843814354169178	0.1745293989076644	0.2930243595551446	0.04564411304561965	-0.3543171461056564	-0.1121082897677681	-0.4304929475446151	1.678141760815087	-0.02360913061859986	0.3673581887521926	-0.5398661367128167	1.826768255111727	1.826768255111738	-0.1615779822132944	6.067582655658233e-05	0.5866171207427273	0.1255323277967723	-0.1259923263031258	-0.01285012968322294	0.01485202974329495	-0.3671578936576506	0.05862957309242926	-0.00751994434331819	0.174710419421786	-22.43644815595178	-23.85782142046935	-4.123598409499903	-2.674450555150779	4.37223505685811	-681.7875826913892	59.45749253352284	0.3073346052208764	0.4026065692109587	-0.1925591386451287	-1.598107549966251	0.07529944209842052	-0.4029541649772852	1.634097731711704	-1.946760173541068	-1.946760173541054	0.5395444947072313	-0.02371044825606002	-0.7787915963485614	-0.02619770299923641	-1.027603154011876e-07	-6.453171765402045e-08	1.01246543864309e-06	-5.423468344322115e-07	-7.804015493013001e-08	-1.059824519147316e-07	7.377225031927109e-07
0.55	-0.1562838945814691	0.02816859517572376	0.8199495783224086	0.8954541004855698	-0.2439450703518107	-0.07983981764036824	-0.3529639218621905	0.8644909907901739	0.8644909907903096	0.05685007234025057	0.1745298540387684	0.2988506583530418	0.0468971941433931	-0.3511014132185314	-0.108057251462359	-0.4321112919762528	1.661457591439058	-0.02295228402382559	0.3631848831851396	-0.5233630110701585	1.806542435605308	1.806542435605313	-0.1560395979990983	3.062527366935898e-05	0.5785690852959444	0.1250662364081883	-0.1317586481540911	-0.01119616681541079	0.01528837775025651	-0.3709813191523091	0.05541448489667794	-0.006914238138928198	0.1799440479299794	-21.25910295489516	-25.1043488841348	-4.209161214119876	-2.5119034568911	4.84261128332225	-686.2021350648776	59.39520375460677	0.3352621935379413	0.4074421432267415	-0.130875597728084	-1.737435792621367	0.06122998743437041	-0.4280680207089088	1.666988963263643	-2.098018485882197	-2.098018485883068	0.5606064706159262	0.007311116972420674	-0.828865201588814	-0.05937040257683095	-9.475203065209499e-08	-5.813413732660687e-08	9.458105850134505e-07	-4.970271278951442e-07	-7.514685464860363e-08	-9.51681698084894e-08	6.879279672532106e-07
